<mxfile host="app.diagrams.net" agent="Mozilla/5.0 (Macintosh; Intel Mac OS X 10_15_7) AppleWebKit/537.36 (KHTML, like Gecko) Chrome/136.0.0.0 Safari/537.36" version="27.0.5">
  <diagram name="AI提供商集成架构图" id="r5fHtGn81RkA2lU1Vqpy">
    <mxGraphModel dx="2066" dy="1150" grid="1" gridSize="10" guides="1" tooltips="1" connect="1" arrows="1" fold="1" page="1" pageScale="1" pageWidth="2200" pageHeight="1920" math="0" shadow="0">
      <root>
        <mxCell id="0" />
        <mxCell id="1" parent="0" />
        <mxCell id="0V83VTf8hpatB1Oq6s5v-42" value="&lt;p style=&quot;margin:0px;margin-top:4px;text-align:center;&quot;&gt;&lt;i&gt;&amp;lt;&amp;lt;Interface&amp;gt;&amp;gt;&lt;/i&gt;&lt;br/&gt;&lt;b&gt;AIAdapter&lt;/b&gt;&lt;/p&gt;&lt;hr size=&quot;1&quot; style=&quot;border-style:solid;&quot;/&gt;&lt;p style=&quot;margin:0px;margin-left:4px;&quot;&gt;&lt;/p&gt;&lt;hr size=&quot;1&quot; style=&quot;border-style:solid;&quot;/&gt;&lt;p style=&quot;margin:0px;margin-left:4px;&quot;&gt;+ chat(messages: Message[]): Promise&amp;lt;AIResponse&amp;gt;&lt;br/&gt;+ generate(prompt: string): Promise&amp;lt;string&amp;gt;&lt;br/&gt;+ getModels(): Promise&amp;lt;Model[]&amp;gt;&lt;/p&gt;" style="verticalAlign=top;align=left;overflow=fill;html=1;whiteSpace=wrap;fillColor=#dae8fc;strokeColor=#6c8ebf;" vertex="1" parent="1">
          <mxGeometry x="940" y="390" width="320" height="120" as="geometry" />
        </mxCell>
        <mxCell id="0V83VTf8hpatB1Oq6s5v-43" value="OpenAIAdapter" style="swimlane;fontStyle=1;align=center;verticalAlign=top;childLayout=stackLayout;horizontal=1;startSize=26;horizontalStack=0;resizeParent=1;resizeParentMax=0;resizeLast=0;collapsible=1;marginBottom=0;whiteSpace=wrap;html=1;fillColor=#d5e8d4;strokeColor=#82b366;" vertex="1" parent="1">
          <mxGeometry x="570" y="634" width="260" height="140" as="geometry" />
        </mxCell>
        <mxCell id="0V83VTf8hpatB1Oq6s5v-44" value="- apiKey: string&lt;br&gt;- baseUrl: string" style="text;strokeColor=none;fillColor=none;align=left;verticalAlign=top;spacingLeft=4;spacingRight=4;overflow=hidden;rotatable=0;points=[[0,0.5],[1,0.5]];portConstraint=eastwest;whiteSpace=wrap;html=1;" vertex="1" parent="0V83VTf8hpatB1Oq6s5v-43">
          <mxGeometry y="26" width="260" height="44" as="geometry" />
        </mxCell>
        <mxCell id="0V83VTf8hpatB1Oq6s5v-45" value="" style="line;strokeWidth=1;fillColor=none;align=left;verticalAlign=middle;spacingTop=-1;spacingLeft=3;spacingRight=3;rotatable=0;labelPosition=right;points=[];portConstraint=eastwest;strokeColor=inherit;" vertex="1" parent="0V83VTf8hpatB1Oq6s5v-43">
          <mxGeometry y="70" width="260" height="8" as="geometry" />
        </mxCell>
        <mxCell id="0V83VTf8hpatB1Oq6s5v-46" value="+ chat(messages: Message[]): Promise&amp;lt;AIResponse&amp;gt;&lt;br&gt;+ generate(prompt: string): Promise&amp;lt;string&amp;gt;&lt;br&gt;+ getModels(): Promise&amp;lt;Model[]&amp;gt;" style="text;strokeColor=none;fillColor=none;align=left;verticalAlign=top;spacingLeft=4;spacingRight=4;overflow=hidden;rotatable=0;points=[[0,0.5],[1,0.5]];portConstraint=eastwest;whiteSpace=wrap;html=1;" vertex="1" parent="0V83VTf8hpatB1Oq6s5v-43">
          <mxGeometry y="78" width="260" height="62" as="geometry" />
        </mxCell>
        <mxCell id="0V83VTf8hpatB1Oq6s5v-47" value="AnthropicAdapter" style="swimlane;fontStyle=1;align=center;verticalAlign=top;childLayout=stackLayout;horizontal=1;startSize=26;horizontalStack=0;resizeParent=1;resizeParentMax=0;resizeLast=0;collapsible=1;marginBottom=0;whiteSpace=wrap;html=1;fillColor=#d5e8d4;strokeColor=#82b366;" vertex="1" parent="1">
          <mxGeometry x="850" y="634" width="260" height="140" as="geometry" />
        </mxCell>
        <mxCell id="0V83VTf8hpatB1Oq6s5v-48" value="- apiKey: string&lt;br&gt;- baseUrl: string" style="text;strokeColor=none;fillColor=none;align=left;verticalAlign=top;spacingLeft=4;spacingRight=4;overflow=hidden;rotatable=0;points=[[0,0.5],[1,0.5]];portConstraint=eastwest;whiteSpace=wrap;html=1;" vertex="1" parent="0V83VTf8hpatB1Oq6s5v-47">
          <mxGeometry y="26" width="260" height="44" as="geometry" />
        </mxCell>
        <mxCell id="0V83VTf8hpatB1Oq6s5v-49" value="" style="line;strokeWidth=1;fillColor=none;align=left;verticalAlign=middle;spacingTop=-1;spacingLeft=3;spacingRight=3;rotatable=0;labelPosition=right;points=[];portConstraint=eastwest;strokeColor=inherit;" vertex="1" parent="0V83VTf8hpatB1Oq6s5v-47">
          <mxGeometry y="70" width="260" height="8" as="geometry" />
        </mxCell>
        <mxCell id="0V83VTf8hpatB1Oq6s5v-50" value="+ chat(messages: Message[]): Promise&amp;lt;AIResponse&amp;gt;&lt;br&gt;+ generate(prompt: string): Promise&amp;lt;string&amp;gt;&lt;br&gt;+ getModels(): Promise&amp;lt;Model[]&amp;gt;" style="text;strokeColor=none;fillColor=none;align=left;verticalAlign=top;spacingLeft=4;spacingRight=4;overflow=hidden;rotatable=0;points=[[0,0.5],[1,0.5]];portConstraint=eastwest;whiteSpace=wrap;html=1;" vertex="1" parent="0V83VTf8hpatB1Oq6s5v-47">
          <mxGeometry y="78" width="260" height="62" as="geometry" />
        </mxCell>
        <mxCell id="0V83VTf8hpatB1Oq6s5v-51" value="DeepSeekAdapter" style="swimlane;fontStyle=1;align=center;verticalAlign=top;childLayout=stackLayout;horizontal=1;startSize=26;horizontalStack=0;resizeParent=1;resizeParentMax=0;resizeLast=0;collapsible=1;marginBottom=0;whiteSpace=wrap;html=1;fillColor=#d5e8d4;strokeColor=#82b366;" vertex="1" parent="1">
          <mxGeometry x="1130" y="634" width="260" height="140" as="geometry" />
        </mxCell>
        <mxCell id="0V83VTf8hpatB1Oq6s5v-52" value="- apiKey: string&lt;br&gt;- baseUrl: string" style="text;strokeColor=none;fillColor=none;align=left;verticalAlign=top;spacingLeft=4;spacingRight=4;overflow=hidden;rotatable=0;points=[[0,0.5],[1,0.5]];portConstraint=eastwest;whiteSpace=wrap;html=1;" vertex="1" parent="0V83VTf8hpatB1Oq6s5v-51">
          <mxGeometry y="26" width="260" height="44" as="geometry" />
        </mxCell>
        <mxCell id="0V83VTf8hpatB1Oq6s5v-53" value="" style="line;strokeWidth=1;fillColor=none;align=left;verticalAlign=middle;spacingTop=-1;spacingLeft=3;spacingRight=3;rotatable=0;labelPosition=right;points=[];portConstraint=eastwest;strokeColor=inherit;" vertex="1" parent="0V83VTf8hpatB1Oq6s5v-51">
          <mxGeometry y="70" width="260" height="8" as="geometry" />
        </mxCell>
        <mxCell id="0V83VTf8hpatB1Oq6s5v-54" value="+ chat(messages: Message[]): Promise&amp;lt;AIResponse&amp;gt;&lt;br&gt;+ generate(prompt: string): Promise&amp;lt;string&amp;gt;&lt;br&gt;+ getModels(): Promise&amp;lt;Model[]&amp;gt;" style="text;strokeColor=none;fillColor=none;align=left;verticalAlign=top;spacingLeft=4;spacingRight=4;overflow=hidden;rotatable=0;points=[[0,0.5],[1,0.5]];portConstraint=eastwest;whiteSpace=wrap;html=1;" vertex="1" parent="0V83VTf8hpatB1Oq6s5v-51">
          <mxGeometry y="78" width="260" height="62" as="geometry" />
        </mxCell>
        <mxCell id="0V83VTf8hpatB1Oq6s5v-55" value="OllamaAdapter" style="swimlane;fontStyle=1;align=center;verticalAlign=top;childLayout=stackLayout;horizontal=1;startSize=26;horizontalStack=0;resizeParent=1;resizeParentMax=0;resizeLast=0;collapsible=1;marginBottom=0;whiteSpace=wrap;html=1;fillColor=#d5e8d4;strokeColor=#82b366;" vertex="1" parent="1">
          <mxGeometry x="1410" y="634" width="260" height="140" as="geometry" />
        </mxCell>
        <mxCell id="0V83VTf8hpatB1Oq6s5v-56" value="- baseUrl: string" style="text;strokeColor=none;fillColor=none;align=left;verticalAlign=top;spacingLeft=4;spacingRight=4;overflow=hidden;rotatable=0;points=[[0,0.5],[1,0.5]];portConstraint=eastwest;whiteSpace=wrap;html=1;" vertex="1" parent="0V83VTf8hpatB1Oq6s5v-55">
          <mxGeometry y="26" width="260" height="44" as="geometry" />
        </mxCell>
        <mxCell id="0V83VTf8hpatB1Oq6s5v-57" value="" style="line;strokeWidth=1;fillColor=none;align=left;verticalAlign=middle;spacingTop=-1;spacingLeft=3;spacingRight=3;rotatable=0;labelPosition=right;points=[];portConstraint=eastwest;strokeColor=inherit;" vertex="1" parent="0V83VTf8hpatB1Oq6s5v-55">
          <mxGeometry y="70" width="260" height="8" as="geometry" />
        </mxCell>
        <mxCell id="0V83VTf8hpatB1Oq6s5v-58" value="+ chat(messages: Message[]): Promise&amp;lt;AIResponse&amp;gt;&lt;br&gt;+ generate(prompt: string): Promise&amp;lt;string&amp;gt;&lt;br&gt;+ getModels(): Promise&amp;lt;Model[]&amp;gt;" style="text;strokeColor=none;fillColor=none;align=left;verticalAlign=top;spacingLeft=4;spacingRight=4;overflow=hidden;rotatable=0;points=[[0,0.5],[1,0.5]];portConstraint=eastwest;whiteSpace=wrap;html=1;" vertex="1" parent="0V83VTf8hpatB1Oq6s5v-55">
          <mxGeometry y="78" width="260" height="62" as="geometry" />
        </mxCell>
        <mxCell id="0V83VTf8hpatB1Oq6s5v-59" value="AIAdapterFactory" style="swimlane;fontStyle=1;align=center;verticalAlign=top;childLayout=stackLayout;horizontal=1;startSize=26;horizontalStack=0;resizeParent=1;resizeParentMax=0;resizeLast=0;collapsible=1;marginBottom=0;whiteSpace=wrap;html=1;fillColor=#ffe6cc;strokeColor=#d79b00;" vertex="1" parent="1">
          <mxGeometry x="560" y="270" width="260" height="80" as="geometry" />
        </mxCell>
        <mxCell id="0V83VTf8hpatB1Oq6s5v-60" value="" style="line;strokeWidth=1;fillColor=none;align=left;verticalAlign=middle;spacingTop=-1;spacingLeft=3;spacingRight=3;rotatable=0;labelPosition=right;points=[];portConstraint=eastwest;strokeColor=inherit;" vertex="1" parent="0V83VTf8hpatB1Oq6s5v-59">
          <mxGeometry y="26" width="260" height="8" as="geometry" />
        </mxCell>
        <mxCell id="0V83VTf8hpatB1Oq6s5v-61" value="+ createAdapter(provider: string): AIAdapter" style="text;strokeColor=none;fillColor=none;align=left;verticalAlign=top;spacingLeft=4;spacingRight=4;overflow=hidden;rotatable=0;points=[[0,0.5],[1,0.5]];portConstraint=eastwest;whiteSpace=wrap;html=1;" vertex="1" parent="0V83VTf8hpatB1Oq6s5v-59">
          <mxGeometry y="34" width="260" height="46" as="geometry" />
        </mxCell>
        <mxCell id="0V83VTf8hpatB1Oq6s5v-62" value="AIService" style="swimlane;fontStyle=1;align=center;verticalAlign=top;childLayout=stackLayout;horizontal=1;startSize=26;horizontalStack=0;resizeParent=1;resizeParentMax=0;resizeLast=0;collapsible=1;marginBottom=0;whiteSpace=wrap;html=1;fillColor=#fff2cc;strokeColor=#d6b656;" vertex="1" parent="1">
          <mxGeometry x="1340" y="210" width="260" height="170" as="geometry" />
        </mxCell>
        <mxCell id="0V83VTf8hpatB1Oq6s5v-63" value="- adapter: AIAdapter" style="text;strokeColor=none;fillColor=none;align=left;verticalAlign=top;spacingLeft=4;spacingRight=4;overflow=hidden;rotatable=0;points=[[0,0.5],[1,0.5]];portConstraint=eastwest;whiteSpace=wrap;html=1;" vertex="1" parent="0V83VTf8hpatB1Oq6s5v-62">
          <mxGeometry y="26" width="260" height="30" as="geometry" />
        </mxCell>
        <mxCell id="0V83VTf8hpatB1Oq6s5v-64" value="" style="line;strokeWidth=1;fillColor=none;align=left;verticalAlign=middle;spacingTop=-1;spacingLeft=3;spacingRight=3;rotatable=0;labelPosition=right;points=[];portConstraint=eastwest;strokeColor=inherit;" vertex="1" parent="0V83VTf8hpatB1Oq6s5v-62">
          <mxGeometry y="56" width="260" height="14" as="geometry" />
        </mxCell>
        <mxCell id="0V83VTf8hpatB1Oq6s5v-65" value="+ setAdapter(adapter: AIAdapter): void&lt;br&gt;+ chat(messages: Message[]): Promise&amp;lt;AIResponse&amp;gt;&lt;br&gt;+ generate(prompt: string): Promise&amp;lt;string&amp;gt;&lt;br&gt;+ getModels(): Promise&amp;lt;Model[]&amp;gt;" style="text;strokeColor=none;fillColor=none;align=left;verticalAlign=top;spacingLeft=4;spacingRight=4;overflow=hidden;rotatable=0;points=[[0,0.5],[1,0.5]];portConstraint=eastwest;whiteSpace=wrap;html=1;" vertex="1" parent="0V83VTf8hpatB1Oq6s5v-62">
          <mxGeometry y="70" width="260" height="100" as="geometry" />
        </mxCell>
        <mxCell id="0V83VTf8hpatB1Oq6s5v-66" value="" style="endArrow=block;dashed=1;endFill=0;endSize=12;html=1;rounded=0;exitX=0.5;exitY=0;exitDx=0;exitDy=0;entryX=0.097;entryY=0.992;entryDx=0;entryDy=0;entryPerimeter=0;" edge="1" parent="1" source="0V83VTf8hpatB1Oq6s5v-43" target="0V83VTf8hpatB1Oq6s5v-42">
          <mxGeometry width="160" relative="1" as="geometry">
            <mxPoint x="910" y="660" as="sourcePoint" />
            <mxPoint x="1070" y="660" as="targetPoint" />
          </mxGeometry>
        </mxCell>
        <mxCell id="0V83VTf8hpatB1Oq6s5v-67" value="implements" style="edgeLabel;html=1;align=center;verticalAlign=middle;resizable=0;points=[];" vertex="1" connectable="0" parent="0V83VTf8hpatB1Oq6s5v-66">
          <mxGeometry x="0.0789" y="1" relative="1" as="geometry">
            <mxPoint x="46" y="10" as="offset" />
          </mxGeometry>
        </mxCell>
        <mxCell id="0V83VTf8hpatB1Oq6s5v-68" value="" style="endArrow=block;dashed=1;endFill=0;endSize=12;html=1;rounded=0;exitX=0.5;exitY=0;exitDx=0;exitDy=0;entryX=0.303;entryY=1.017;entryDx=0;entryDy=0;entryPerimeter=0;" edge="1" parent="1" source="0V83VTf8hpatB1Oq6s5v-47" target="0V83VTf8hpatB1Oq6s5v-42">
          <mxGeometry width="160" relative="1" as="geometry">
            <mxPoint x="910" y="660" as="sourcePoint" />
            <mxPoint x="1070" y="660" as="targetPoint" />
          </mxGeometry>
        </mxCell>
        <mxCell id="0V83VTf8hpatB1Oq6s5v-69" value="implements" style="edgeLabel;html=1;align=center;verticalAlign=middle;resizable=0;points=[];" vertex="1" connectable="0" parent="0V83VTf8hpatB1Oq6s5v-68">
          <mxGeometry x="0.0789" y="1" relative="1" as="geometry">
            <mxPoint y="10" as="offset" />
          </mxGeometry>
        </mxCell>
        <mxCell id="0V83VTf8hpatB1Oq6s5v-70" value="" style="endArrow=block;dashed=1;endFill=0;endSize=12;html=1;rounded=0;exitX=0.5;exitY=0;exitDx=0;exitDy=0;" edge="1" parent="1" source="0V83VTf8hpatB1Oq6s5v-51">
          <mxGeometry width="160" relative="1" as="geometry">
            <mxPoint x="910" y="660" as="sourcePoint" />
            <mxPoint x="1170" y="511" as="targetPoint" />
          </mxGeometry>
        </mxCell>
        <mxCell id="0V83VTf8hpatB1Oq6s5v-71" value="implements" style="edgeLabel;html=1;align=center;verticalAlign=middle;resizable=0;points=[];" vertex="1" connectable="0" parent="0V83VTf8hpatB1Oq6s5v-70">
          <mxGeometry x="0.0789" y="1" relative="1" as="geometry">
            <mxPoint x="9" y="10" as="offset" />
          </mxGeometry>
        </mxCell>
        <mxCell id="0V83VTf8hpatB1Oq6s5v-72" value="" style="endArrow=block;dashed=1;endFill=0;endSize=12;html=1;rounded=0;exitX=0.5;exitY=0;exitDx=0;exitDy=0;entryX=0.853;entryY=1.017;entryDx=0;entryDy=0;entryPerimeter=0;" edge="1" parent="1" source="0V83VTf8hpatB1Oq6s5v-55" target="0V83VTf8hpatB1Oq6s5v-42">
          <mxGeometry width="160" relative="1" as="geometry">
            <mxPoint x="910" y="660" as="sourcePoint" />
            <mxPoint x="1070" y="660" as="targetPoint" />
          </mxGeometry>
        </mxCell>
        <mxCell id="0V83VTf8hpatB1Oq6s5v-73" value="implements" style="edgeLabel;html=1;align=center;verticalAlign=middle;resizable=0;points=[];" vertex="1" connectable="0" parent="0V83VTf8hpatB1Oq6s5v-72">
          <mxGeometry x="0.0789" y="1" relative="1" as="geometry">
            <mxPoint x="-3" y="1" as="offset" />
          </mxGeometry>
        </mxCell>
        <mxCell id="0V83VTf8hpatB1Oq6s5v-74" value="" style="endArrow=open;endSize=12;dashed=1;html=1;rounded=0;exitX=0.481;exitY=1;exitDx=0;exitDy=0;entryX=0;entryY=0.5;entryDx=0;entryDy=0;exitPerimeter=0;" edge="1" parent="1" source="0V83VTf8hpatB1Oq6s5v-61" target="0V83VTf8hpatB1Oq6s5v-42">
          <mxGeometry width="160" relative="1" as="geometry">
            <mxPoint x="1200" y="670" as="sourcePoint" />
            <mxPoint x="1360" y="670" as="targetPoint" />
          </mxGeometry>
        </mxCell>
        <mxCell id="0V83VTf8hpatB1Oq6s5v-75" value="creates" style="edgeLabel;html=1;align=center;verticalAlign=middle;resizable=0;points=[];" vertex="1" connectable="0" parent="0V83VTf8hpatB1Oq6s5v-74">
          <mxGeometry x="-0.2121" relative="1" as="geometry">
            <mxPoint x="-13" y="3" as="offset" />
          </mxGeometry>
        </mxCell>
        <mxCell id="0V83VTf8hpatB1Oq6s5v-76" value="" style="endArrow=diamondThin;endFill=0;endSize=24;html=1;rounded=0;exitX=0.45;exitY=1.013;exitDx=0;exitDy=0;exitPerimeter=0;entryX=1;entryY=0.5;entryDx=0;entryDy=0;" edge="1" parent="1" source="0V83VTf8hpatB1Oq6s5v-65" target="0V83VTf8hpatB1Oq6s5v-42">
          <mxGeometry width="160" relative="1" as="geometry">
            <mxPoint x="1220" y="13" as="sourcePoint" />
            <mxPoint x="1120" y="410" as="targetPoint" />
          </mxGeometry>
        </mxCell>
        <mxCell id="0V83VTf8hpatB1Oq6s5v-77" value="uses" style="edgeLabel;html=1;align=center;verticalAlign=middle;resizable=0;points=[];" vertex="1" connectable="0" parent="0V83VTf8hpatB1Oq6s5v-76">
          <mxGeometry x="-0.2121" relative="1" as="geometry">
            <mxPoint x="-3" y="-11" as="offset" />
          </mxGeometry>
        </mxCell>
      </root>
    </mxGraphModel>
  </diagram>
</mxfile>
